# xmcd
#
# Track frame offsets:
# 150
# 11817
# 22347
# 33077
# 41340
# 53060
# 60267
# 70205
# 80560
# 90077
# 100727
# 109682
# 118195
# 130727
# 138037
# 148850
# 157892
# 169585
# 182087
# 193562
#
# Disc length: 2785 seconds
#
#
# Revision: 0
# Processed by: cddbd v1.5.2PL0 Copyright (c) Steve Scherf et al.
# Submitted via: FreeRIP 2.942 
#
DISCID=fd0adf14
DTITLE=Louisiana Hayride - Country Crooners [CDOne)
DYEAR=2001
DGENRE=Country
TTITLE0=Am I Losing You - Jim Reeves
TTITLE1=Candy Kisses - George Morgan
TTITLE2=Careless Hands - Slim Whitman
TTITLE3=It'll Take A While - Billy Walker
TTITLE4=Crystal Chandeliers - Jim Ed Brown
TTITLE5=Sweet Dreams Of You - Nat Stuckey
TTITLE6=Walk Through This World - George Jones
TTITLE7=I Miss You Already - Faron Young
TTITLE8=Waiting For A Train - Jim Reeves
TTITLE9=Give My Love To Rose - Johnny Cash
TTITLE10=Foggy River - Red Foley
TTITLE11=I Remember You - Slim Whitman
TTITLE12=Most Of The Time - Marty Robbins
TTITLE13=Cattle Call - Eddy Arnold
TTITLE14=A Long Time Ago - Faron Young
TTITLE15=Hasta Luego - David Houston
TTITLE16=She Thinks I Still Care - George Jones
TTITLE17=Keeper Of The Keys - Wynn Stewart
TTITLE18=How Many - Jim Reeves
TTITLE19=Whispering Pines - Johnny Horton
EXTD=
EXTT0=
EXTT1=
EXTT2=
EXTT3=
EXTT4=
EXTT5=
EXTT6=
EXTT7=
EXTT8=
EXTT9=
EXTT10=
EXTT11=
EXTT12=
EXTT13=
EXTT14=
EXTT15=
EXTT16=
EXTT17=
EXTT18=
EXTT19=
PLAYORDER=
